<mxfile host="app.diagrams.net" modified="2023-11-29T18:49:40.441Z" agent="Mozilla/5.0 (Windows NT 10.0; Win64; x64) AppleWebKit/537.36 (KHTML, like Gecko) Chrome/119.0.0.0 Safari/537.36" etag="jeWEZgGB-QTl_O0kz_g3" version="22.1.5" type="github">
  <diagram name="Page-1" id="5kuDODQk5NVyo5WU-lUx">
    <mxGraphModel dx="794" dy="1564" grid="1" gridSize="10" guides="1" tooltips="1" connect="1" arrows="1" fold="1" page="1" pageScale="1" pageWidth="850" pageHeight="1100" math="0" shadow="0">
      <root>
        <mxCell id="0" />
        <mxCell id="1" parent="0" />
        <mxCell id="Fuql0yeKTwbgCwV12yrO-1" value="start" style="rounded=1;whiteSpace=wrap;html=1;" vertex="1" parent="1">
          <mxGeometry x="320" y="-30" width="120" height="60" as="geometry" />
        </mxCell>
        <mxCell id="Fuql0yeKTwbgCwV12yrO-6" style="edgeStyle=orthogonalEdgeStyle;rounded=0;orthogonalLoop=1;jettySize=auto;html=1;entryX=0.5;entryY=0;entryDx=0;entryDy=0;" edge="1" parent="1" source="Fuql0yeKTwbgCwV12yrO-4" target="Fuql0yeKTwbgCwV12yrO-5">
          <mxGeometry relative="1" as="geometry" />
        </mxCell>
        <mxCell id="Fuql0yeKTwbgCwV12yrO-4" value="arr[50]" style="shape=card;whiteSpace=wrap;html=1;" vertex="1" parent="1">
          <mxGeometry x="320" y="130" width="120" height="70" as="geometry" />
        </mxCell>
        <mxCell id="Fuql0yeKTwbgCwV12yrO-10" style="edgeStyle=orthogonalEdgeStyle;rounded=0;orthogonalLoop=1;jettySize=auto;html=1;" edge="1" parent="1" source="Fuql0yeKTwbgCwV12yrO-5" target="Fuql0yeKTwbgCwV12yrO-11">
          <mxGeometry relative="1" as="geometry">
            <mxPoint x="380" y="360" as="targetPoint" />
          </mxGeometry>
        </mxCell>
        <mxCell id="Fuql0yeKTwbgCwV12yrO-5" value="" style="shape=sumEllipse;perimeter=ellipsePerimeter;whiteSpace=wrap;html=1;backgroundOutline=1;" vertex="1" parent="1">
          <mxGeometry x="320" y="230" width="120" height="90" as="geometry" />
        </mxCell>
        <mxCell id="Fuql0yeKTwbgCwV12yrO-7" value="i=0" style="text;html=1;strokeColor=none;fillColor=none;align=center;verticalAlign=middle;whiteSpace=wrap;rounded=0;" vertex="1" parent="1">
          <mxGeometry x="350" y="230" width="60" height="30" as="geometry" />
        </mxCell>
        <mxCell id="Fuql0yeKTwbgCwV12yrO-16" style="edgeStyle=orthogonalEdgeStyle;rounded=0;orthogonalLoop=1;jettySize=auto;html=1;exitX=1;exitY=0.75;exitDx=0;exitDy=0;" edge="1" parent="1" source="Fuql0yeKTwbgCwV12yrO-8">
          <mxGeometry relative="1" as="geometry">
            <mxPoint x="520" y="350" as="targetPoint" />
          </mxGeometry>
        </mxCell>
        <mxCell id="Fuql0yeKTwbgCwV12yrO-8" value="I&amp;lt;50" style="text;html=1;strokeColor=none;fillColor=none;align=center;verticalAlign=middle;whiteSpace=wrap;rounded=0;" vertex="1" parent="1">
          <mxGeometry x="390" y="260" width="60" height="30" as="geometry" />
        </mxCell>
        <mxCell id="Fuql0yeKTwbgCwV12yrO-9" value="I++" style="text;html=1;strokeColor=none;fillColor=none;align=center;verticalAlign=middle;whiteSpace=wrap;rounded=0;" vertex="1" parent="1">
          <mxGeometry x="310" y="260" width="60" height="30" as="geometry" />
        </mxCell>
        <mxCell id="Fuql0yeKTwbgCwV12yrO-26" style="edgeStyle=orthogonalEdgeStyle;rounded=0;orthogonalLoop=1;jettySize=auto;html=1;entryX=0;entryY=0.5;entryDx=0;entryDy=0;" edge="1" parent="1" source="Fuql0yeKTwbgCwV12yrO-11" target="Fuql0yeKTwbgCwV12yrO-9">
          <mxGeometry relative="1" as="geometry">
            <Array as="points">
              <mxPoint x="290" y="390" />
              <mxPoint x="290" y="275" />
            </Array>
          </mxGeometry>
        </mxCell>
        <mxCell id="Fuql0yeKTwbgCwV12yrO-11" value="sum=sum+arr[i]" style="rounded=0;whiteSpace=wrap;html=1;" vertex="1" parent="1">
          <mxGeometry x="320" y="360" width="120" height="60" as="geometry" />
        </mxCell>
        <mxCell id="Fuql0yeKTwbgCwV12yrO-14" value="" style="edgeStyle=orthogonalEdgeStyle;rounded=0;orthogonalLoop=1;jettySize=auto;html=1;" edge="1" parent="1" source="Fuql0yeKTwbgCwV12yrO-1" target="Fuql0yeKTwbgCwV12yrO-13">
          <mxGeometry relative="1" as="geometry">
            <mxPoint x="380" y="120" as="targetPoint" />
            <mxPoint x="380" y="30" as="sourcePoint" />
          </mxGeometry>
        </mxCell>
        <mxCell id="Fuql0yeKTwbgCwV12yrO-15" value="" style="edgeStyle=orthogonalEdgeStyle;rounded=0;orthogonalLoop=1;jettySize=auto;html=1;" edge="1" parent="1" source="Fuql0yeKTwbgCwV12yrO-13" target="Fuql0yeKTwbgCwV12yrO-4">
          <mxGeometry relative="1" as="geometry" />
        </mxCell>
        <mxCell id="Fuql0yeKTwbgCwV12yrO-13" value="sum=0" style="rounded=0;whiteSpace=wrap;html=1;" vertex="1" parent="1">
          <mxGeometry x="320" y="50" width="120" height="60" as="geometry" />
        </mxCell>
        <mxCell id="Fuql0yeKTwbgCwV12yrO-18" style="edgeStyle=orthogonalEdgeStyle;rounded=0;orthogonalLoop=1;jettySize=auto;html=1;" edge="1" parent="1" source="Fuql0yeKTwbgCwV12yrO-17">
          <mxGeometry relative="1" as="geometry">
            <mxPoint x="540" y="490" as="targetPoint" />
          </mxGeometry>
        </mxCell>
        <mxCell id="Fuql0yeKTwbgCwV12yrO-17" value="avg=sum/50" style="rounded=0;whiteSpace=wrap;html=1;" vertex="1" parent="1">
          <mxGeometry x="480" y="360" width="120" height="65" as="geometry" />
        </mxCell>
        <mxCell id="Fuql0yeKTwbgCwV12yrO-24" style="edgeStyle=orthogonalEdgeStyle;rounded=0;orthogonalLoop=1;jettySize=auto;html=1;entryX=0.5;entryY=0;entryDx=0;entryDy=0;" edge="1" parent="1" source="Fuql0yeKTwbgCwV12yrO-19" target="Fuql0yeKTwbgCwV12yrO-23">
          <mxGeometry relative="1" as="geometry" />
        </mxCell>
        <mxCell id="Fuql0yeKTwbgCwV12yrO-32" style="edgeStyle=orthogonalEdgeStyle;rounded=0;orthogonalLoop=1;jettySize=auto;html=1;" edge="1" parent="1" source="Fuql0yeKTwbgCwV12yrO-19" target="Fuql0yeKTwbgCwV12yrO-33">
          <mxGeometry relative="1" as="geometry">
            <mxPoint x="670.6666259765625" y="535" as="targetPoint" />
          </mxGeometry>
        </mxCell>
        <mxCell id="Fuql0yeKTwbgCwV12yrO-19" value="" style="shape=sumEllipse;perimeter=ellipsePerimeter;whiteSpace=wrap;html=1;backgroundOutline=1;" vertex="1" parent="1">
          <mxGeometry x="480" y="490" width="120" height="90" as="geometry" />
        </mxCell>
        <mxCell id="Fuql0yeKTwbgCwV12yrO-20" value="i=0" style="text;html=1;strokeColor=none;fillColor=none;align=center;verticalAlign=middle;whiteSpace=wrap;rounded=0;" vertex="1" parent="1">
          <mxGeometry x="510" y="490" width="60" height="30" as="geometry" />
        </mxCell>
        <mxCell id="Fuql0yeKTwbgCwV12yrO-21" value="I&amp;lt;50" style="text;html=1;strokeColor=none;fillColor=none;align=center;verticalAlign=middle;whiteSpace=wrap;rounded=0;" vertex="1" parent="1">
          <mxGeometry x="550" y="520" width="60" height="30" as="geometry" />
        </mxCell>
        <mxCell id="Fuql0yeKTwbgCwV12yrO-22" value="I++" style="text;html=1;strokeColor=none;fillColor=none;align=center;verticalAlign=middle;whiteSpace=wrap;rounded=0;" vertex="1" parent="1">
          <mxGeometry x="470" y="520" width="60" height="30" as="geometry" />
        </mxCell>
        <mxCell id="Fuql0yeKTwbgCwV12yrO-25" style="edgeStyle=orthogonalEdgeStyle;rounded=0;orthogonalLoop=1;jettySize=auto;html=1;" edge="1" parent="1" source="Fuql0yeKTwbgCwV12yrO-23">
          <mxGeometry relative="1" as="geometry">
            <mxPoint x="670" y="770.666748046875" as="targetPoint" />
          </mxGeometry>
        </mxCell>
        <mxCell id="Fuql0yeKTwbgCwV12yrO-28" value="true" style="edgeLabel;html=1;align=center;verticalAlign=middle;resizable=0;points=[];" vertex="1" connectable="0" parent="Fuql0yeKTwbgCwV12yrO-25">
          <mxGeometry x="-0.3888" relative="1" as="geometry">
            <mxPoint as="offset" />
          </mxGeometry>
        </mxCell>
        <mxCell id="Fuql0yeKTwbgCwV12yrO-29" style="edgeStyle=orthogonalEdgeStyle;rounded=0;orthogonalLoop=1;jettySize=auto;html=1;entryX=0;entryY=0.5;entryDx=0;entryDy=0;" edge="1" parent="1" source="Fuql0yeKTwbgCwV12yrO-23" target="Fuql0yeKTwbgCwV12yrO-22">
          <mxGeometry relative="1" as="geometry">
            <Array as="points">
              <mxPoint x="450" y="695" />
              <mxPoint x="450" y="535" />
            </Array>
          </mxGeometry>
        </mxCell>
        <mxCell id="Fuql0yeKTwbgCwV12yrO-23" value="arr[i]&amp;gt;avg" style="rhombus;whiteSpace=wrap;html=1;" vertex="1" parent="1">
          <mxGeometry x="490" y="630" width="110" height="130" as="geometry" />
        </mxCell>
        <mxCell id="Fuql0yeKTwbgCwV12yrO-27" value="arr[i]" style="shape=document;whiteSpace=wrap;html=1;boundedLbl=1;" vertex="1" parent="1">
          <mxGeometry x="610" y="770" width="120" height="80" as="geometry" />
        </mxCell>
        <mxCell id="Fuql0yeKTwbgCwV12yrO-33" value="stop" style="rounded=1;whiteSpace=wrap;html=1;" vertex="1" parent="1">
          <mxGeometry x="709.9966259765625" y="505" width="120" height="60" as="geometry" />
        </mxCell>
      </root>
    </mxGraphModel>
  </diagram>
</mxfile>
